<?xml version="1.0" encoding="UTF-8"?>
<!DOCTYPE svg PUBLIC "-//W3C//DTD SVG 1.1//EN" "http://www.w3.org/Graphics/SVG/1.1/DTD/svg11.dtd">
<!-- Creator: CorelDRAW (Versão OEM) -->
<svg xmlns="http://www.w3.org/2000/svg" xml:space="preserve" width="200mm" height="62.8298mm" version="1.1" style="shape-rendering:geometricPrecision; text-rendering:geometricPrecision; image-rendering:optimizeQuality; fill-rule:evenodd; clip-rule:evenodd"
viewBox="0 0 20000 6282.98"
 xmlns:xlink="http://www.w3.org/1999/xlink"
 xmlns:xodm="http://www.corel.com/coreldraw/odm/2003">
 <defs>
  <style type="text/css">
   <![CDATA[
    .fil1 {fill:#245C97}
    .fil5 {fill:#606062}
    .fil2 {fill:#92B931}
    .fil4 {fill:#C1392B}
    .fil3 {fill:#E44B39}
    .fil0 {fill:#606062;fill-rule:nonzero}
   ]]>
  </style>
 </defs>
 <g id="Camada_x0020_1">
  <metadata id="CorelCorpID_0Corel-Layer"/>
  <path class="fil0" d="M2520.48 3666.56c109.47,0 210.35,19.08 303.21,57.82 92.89,38.12 171.62,96.56 237.43,174.67 65.79,78.11 116.85,175.29 153.14,292.14 36.9,116.25 55.35,253.42 55.35,410.85 0,147.62 -16.61,279.87 -50.44,395.48 -33.82,116.26 -82.4,214.06 -146.38,293.38 -63.95,78.73 -142.08,140.25 -235.56,182.67 -93.48,42.44 -198.66,63.97 -316.75,63.97 -115.64,0 -219.57,-20.29 -312.46,-60.27 -92.24,-40.58 -170.96,-99.64 -235.56,-178.37 -63.95,-78.73 -113.77,-176.51 -148.84,-293.38 -35.04,-116.23 -52.28,-250.94 -52.28,-403.48 0,-162.37 19.07,-301.97 56.6,-418.85 38.12,-117.47 90.4,-214.65 156.21,-291.52 66.44,-76.89 145.77,-133.46 237.41,-170.37 92.26,-36.28 191.9,-54.74 298.92,-54.74zm268.17 491.42c-30.15,-38.12 -67.67,-67.03 -113.17,-86.1 -45.53,-19.07 -97.19,-28.91 -155,-28.91 -74.41,0 -135.93,13.53 -183.91,41.2 -47.96,27.69 -86.1,66.44 -113.77,115.64 -28.29,49.2 -47.98,107.63 -59.06,176.53 -10.45,68.27 -15.97,143.92 -15.97,226.32 0,110.72 8.6,201.74 25.83,274.31 17.83,71.97 43.04,129.17 75.65,171.61 33.2,42.45 72.57,72.57 119.31,90.4 46.14,17.24 96.56,25.83 151.92,25.83 54.11,0 103.93,-9.21 150.08,-27.04 46.74,-17.84 86.1,-48.61 119.31,-92.89 32.61,-43.66 58.44,-100.86 76.27,-171.59 17.83,-70.73 27.07,-161.15 27.07,-270.63 0,-97.18 -8.62,-183.28 -25.23,-258.93 -16.6,-75.65 -43.05,-137.77 -79.33,-185.75z"/>
  <path class="fil0" d="M12826.92 3108.71c0,-25.21 4.92,-49.2 14.76,-72.57 9.23,-22.77 22.77,-42.44 40.6,-60.28 17.21,-17.23 37.53,-30.74 59.66,-40.6 22.15,-9.22 46.74,-14.13 73.19,-14.13 25.23,0 49.2,4.91 71.35,14.13 22.13,9.86 42.44,23.37 59.65,40.6 17.84,17.84 31.37,37.51 41.83,59.66 10.45,22.15 15.37,46.74 15.37,73.19l0 2056.1c20.31,2.46 40.6,8.62 61.52,19.08 20.91,9.83 38.74,23.37 53.49,40.6 14.78,16.59 27.07,35.67 36.91,56.58 9.24,20.91 14.15,44.28 14.15,68.89 0,25.21 -4.91,49.82 -15.37,72.57 -9.86,22.75 -23.37,42.44 -39.36,59.03 -16.62,17.24 -35.69,30.77 -58.44,40.61 -22.75,10.45 -46.74,15.37 -71.95,15.37 -55.36,0 -105.8,-11.07 -151.32,-32.6 -45.5,-21.51 -89.78,-57.8 -132.85,-108.24 -59.03,44.9 -126.09,79.33 -201.11,103.94 -75.03,24.61 -156.22,36.9 -243.57,36.9 -115.01,0 -218.95,-20.29 -311.21,-60.27 -92.26,-40.58 -170.99,-99.64 -234.94,-178.37 -63.98,-78.73 -113.8,-176.51 -148.25,-293.38 -35.04,-116.23 -52.27,-250.94 -52.27,-403.48 0,-162.37 19.07,-301.97 56.59,-418.85 37.51,-117.47 89.79,-214.65 155.6,-291.52 65.81,-76.89 144.54,-133.46 236.18,-170.37 91.65,-36.28 191.29,-54.74 297.68,-54.74 70.73,0 135.93,8 196.2,23.37 59.68,16 118.72,38.75 175.91,68.9l0 -650.12zm-103.93 1049.27c-29.53,-38.12 -67.66,-67.03 -112.56,-86.1 -45.52,-19.07 -97.18,-28.91 -154.38,-28.91 -73.81,0 -134.7,13.53 -182.66,41.2 -47.98,27.69 -85.51,66.44 -113.8,115.64 -28.28,49.2 -47.36,107.63 -58.43,176.53 -10.46,68.27 -15.97,143.92 -15.97,226.32 0,110.72 8.59,201.74 25.82,274.31 17.22,71.97 42.43,129.17 75.65,171.61 32.59,42.45 71.95,72.57 118.1,90.4 46.12,17.24 96.56,25.83 151.29,25.83 53.5,0 103.32,-9.21 149.46,-27.04 46.12,-17.84 85.49,-48.61 118.69,-92.89 32.61,-43.66 57.82,-100.86 75.65,-171.59 17.86,-70.73 27.07,-161.15 27.07,-270.63 0,-97.18 -8.61,-183.28 -25.21,-258.93 -16.61,-75.65 -43.06,-137.77 -78.72,-185.75z"/>
  <path class="fil0" d="M10980.53 3854.77c0,-23.99 4.92,-47.98 14.78,-70.73 9.21,-22.75 22.75,-42.45 39.36,-59.04 17.21,-17.23 36.91,-30.77 59.66,-41.82 23.37,-10.46 47.36,-16 72.57,-16 26.45,0 51.06,4.92 74.43,15.38 22.75,9.83 42.42,23.99 59.65,41.2 16.62,17.83 30.13,37.53 40.58,60.28 10.46,22.75 15.4,46.74 15.4,70.73l0 1495.19c0,25.21 -4.94,49.2 -15.4,71.95 -10.45,23.37 -23.96,43.06 -41.82,59.65 -17.21,17.24 -37.5,30.77 -59.65,40.61 -22.13,10.45 -46.74,15.37 -73.19,15.37 -25.21,0 -49.2,-4.92 -72.57,-15.37 -22.75,-9.84 -42.45,-23.37 -59.66,-40.61 -16.61,-16.59 -30.15,-36.28 -39.36,-59.65 -9.86,-22.75 -14.78,-46.74 -14.78,-71.95l0 -1495.19z"/>
  <path class="fil0" d="M10980.53 3107.47c0,-25.21 4.92,-49.2 14.78,-71.33 9.21,-22.15 22.75,-42.44 39.96,-59.65 16.61,-17.86 36.31,-31.37 59.06,-40.61 22.12,-9.84 46.74,-14.75 73.81,-14.75 54.11,0 99.64,17.21 135.3,52.28 35.66,35.04 53.52,79.94 53.52,134.06l0 3.7c0,55.36 -18.45,100.26 -55.36,134.7 -36.9,34.43 -81.81,51.66 -133.46,51.66 -53.52,0 -98.43,-17.83 -134.09,-53.52 -35.66,-35.66 -53.52,-79.94 -53.52,-132.84l0 -1.84 0 -1.86z"/>
  <path class="fil0" d="M9882.65 3666.56c108.88,0 209.74,19.08 302.62,57.82 92.27,38.12 170.97,96.56 236.78,174.67 65.2,78.11 116.26,175.29 153.17,292.14 36.28,116.25 54.73,253.42 54.73,410.85 0,147.62 -16.61,279.87 -50.44,395.48 -33.82,116.26 -82.4,214.06 -145.76,293.38 -63.97,78.73 -142.08,140.25 -234.94,182.67 -92.89,42.44 -198.66,63.97 -316.16,63.97 -74.4,0 -140.84,-7.99 -199.25,-23.37 -57.82,-15.37 -116.26,-38.74 -175.29,-68.27l0 651.96c0,25.83 -4.94,50.44 -15.4,72.57 -10.45,22.15 -24.59,41.82 -41.82,58.43 -17.83,16.62 -37.5,30.13 -60.28,39.99 -22.13,9.21 -46.12,14.13 -71.33,14.13 -24.61,0 -48.6,-4.92 -71.97,-15.37 -23.99,-9.84 -43.66,-23.37 -60.27,-39.37 -16,-16.61 -29.53,-36.28 -39.99,-59.65 -10.45,-23.37 -15.37,-47.36 -15.37,-70.73l0 -2242.47c0,-22.78 4.92,-45.52 14.77,-68.28 9.22,-22.75 22.76,-42.44 39.97,-59.05 16.61,-17.22 36.3,-30.75 59.05,-41.83 22.13,-10.45 46.74,-15.99 73.19,-15.99 38.75,0 71.36,8.62 96.57,25.23 25.2,16.59 50.44,42.45 74.43,77.49 107.01,-70.73 238.02,-106.4 392.99,-106.4zm266.34 491.42c-30.15,-38.12 -67.68,-67.03 -113.18,-86.1 -45.52,-19.07 -97.18,-28.91 -154.99,-28.91 -74.41,0 -135.93,13.53 -183.91,41.2 -47.96,27.69 -86.11,66.44 -113.77,115.64 -28.29,49.2 -47.98,107.63 -59.06,176.53 -10.46,68.27 -15.97,143.92 -15.97,226.32 0,110.72 8.59,201.74 25.83,274.31 17.83,71.97 43.04,129.17 75.65,171.61 33.2,42.45 72.57,72.57 119.31,90.4 46.14,17.24 96.56,25.83 151.92,25.83 54.11,0 103.93,-9.21 150.08,-27.04 46.74,-17.84 86.1,-48.61 119.31,-92.89 32.6,-43.66 58.43,-100.86 76.27,-171.59 17.83,-70.73 27.07,-161.15 27.07,-270.63 0,-97.18 -8.62,-183.28 -25.24,-258.93 -16.59,-75.65 -43.04,-137.77 -79.32,-185.75z"/>
  <path class="fil0" d="M7816.09 3666.56c78.11,0 148.84,9.84 213.42,29.53 63.97,20.29 127.92,47.96 191.9,84.25 16.61,-33.83 39.98,-60.28 70.73,-80.57 30.75,-19.67 63.95,-29.53 100.26,-29.53 25.21,0 48.58,4.94 70.73,15.4 22.13,9.83 41.83,23.37 59.66,40.58 17.21,16.61 30.74,36.28 40.58,59.06 9.24,22.75 14.15,46.74 14.15,71.95l-14.15 1282.38c0,12.29 3.08,19.07 10.45,21.53 7.38,2.46 12.32,3.67 14.78,3.67l1.84 0c26.45,0 50.44,4.94 72.57,15.4 22.15,10.46 41.82,23.97 59.65,41.82 17.24,17.21 30.77,36.89 40.61,59.66 9.21,22.13 14.13,46.12 14.13,71.33 0,26.45 -4.92,51.06 -15.37,74.43 -9.84,22.75 -23.97,42.44 -41.2,58.44 -17.22,16.59 -37.53,28.9 -60.28,38.12 -22.75,9.24 -46.74,13.53 -71.95,13.53l-3.7 0c-66.43,0 -124.23,-13.53 -174.05,-41.2 -49.82,-27.69 -94.72,-64.59 -135.94,-110.09 -59.66,51.65 -129.15,89.78 -206.66,114.39 -78.11,24.61 -162.38,36.9 -252.16,36.9 -115.01,0 -218.97,-20.29 -311.83,-60.27 -92.26,-40.58 -170.37,-99.64 -234.94,-178.37 -63.98,-78.73 -113.8,-176.51 -148.25,-293.38 -35.04,-116.23 -52.27,-250.94 -52.27,-403.48 0,-162.37 19.07,-301.97 56.59,-418.85 38.13,-117.47 89.79,-214.65 155.6,-291.52 66.43,-76.89 145.16,-133.46 236.8,-170.37 92.27,-36.28 191.29,-54.74 298.3,-54.74zm268.77 491.42c-30.12,-36.9 -67.03,-65.19 -111.93,-85.48 -44.9,-19.69 -97.18,-29.53 -156.84,-29.53 -129.17,0 -223.27,45.52 -282.3,135.92 -59.06,90.43 -88.56,231.89 -88.56,423.77 0,110.72 9.21,201.74 27.04,274.31 17.83,71.97 43.07,129.17 75.03,171.61 31.99,42.45 71.35,72.57 117.5,90.4 46.12,17.24 96.56,25.83 151.29,25.83 54.74,0 105.18,-8.59 151.3,-25.83 46.12,-17.83 85.49,-47.95 117.47,-91.02 31.99,-43.66 57.2,-100.86 75.03,-172.21 17.86,-71.35 27.07,-162.37 27.07,-273.09 0,-111.31 -9.21,-202.33 -27.67,-273.07 -18.45,-71.35 -43.68,-127.94 -74.43,-171.61z"/>
  <path class="fil0" d="M5816.56 3776.66c35.67,-20.29 69.5,-37.53 101.48,-50.44 31.99,-13.54 63.36,-24.61 94.73,-33.21 31.36,-9.24 62.11,-15.99 93.48,-20.29 31.36,-4.32 64.57,-6.16 99.02,-6.16 56.57,0 112.55,6.76 167.91,20.92 55.36,13.53 107.63,32.58 156.83,56.57 49.2,23.99 95.35,52.9 138.39,86.11 43.66,33.82 81.18,70.73 113.79,111.95 14.14,15.38 24.59,33.21 31.37,53.5 6.76,20.91 9.84,40.6 9.84,59.65 0,25.24 -4.92,49.23 -14.16,71.98 -9.83,22.75 -22.13,43.04 -38.12,60.89 -15.38,18.46 -34.45,32.59 -57.2,42.42 -23.37,10.46 -47.36,15.38 -72.59,15.38 -33.21,0 -57.8,-4.3 -73.79,-13.52 -15.37,-8.61 -30.77,-20.31 -45.52,-35.68 -15.38,-14.76 -33.83,-31.97 -55.36,-52.28 -21.53,-20.29 -55.96,-42.44 -102.72,-67.65 -55.34,-22.75 -108.23,-33.83 -158.67,-33.83 -59.66,0 -113.18,11.7 -159.3,34.45 -46.12,22.75 -85.48,52.27 -116.85,89.18 -31.99,36.29 -55.98,76.87 -71.97,121.17 -16.62,44.28 -24.59,87.94 -24.59,129.77l0 932.42c0,25.21 -4.94,49.82 -15.4,72.57 -10.45,22.75 -23.97,42.44 -41.82,59.03 -17.21,17.24 -37.5,30.77 -59.66,40.61 -22.12,10.45 -46.74,15.37 -73.19,15.37 -25.2,0 -49.2,-4.92 -72.57,-15.37 -22.75,-9.84 -42.44,-23.37 -59.65,-40.61 -16.62,-16.59 -30.15,-36.28 -39.37,-59.65 -9.85,-22.75 -14.77,-46.74 -14.77,-71.95l0 -933.66 0 -562.15c0,-23.99 4.92,-47.36 14.77,-70.74 9.22,-22.74 22.75,-42.44 39.37,-59.03 17.21,-17.23 36.9,-30.75 59.65,-41.82 23.37,-10.46 47.37,-16 72.57,-16 36.29,0 70.12,9.84 101.48,29.53 31.37,20.29 55.36,46.74 72.59,80.57z"/>
  <path class="fil0" d="M4621.51 5052.88c16.59,-24.59 38.12,-43.04 63.95,-56.58 25.83,-12.91 54.74,-19.69 87.35,-19.69 22.75,0 45.52,4.92 67.65,14.16 22.15,9.83 41.82,23.37 59.65,39.98 17.24,16.59 30.77,36.29 41.23,58.41 10.45,22.16 15.37,46.74 15.37,73.19 0,25.24 -4.92,49.82 -14.15,73.19 -9.84,23.38 -22.75,44.91 -38.13,63.98 -15.37,19.07 -32.6,36.91 -50.44,52.28 -17.83,15.37 -33.82,28.91 -46.74,39.36 -43.68,35.07 -84.89,62.12 -125.47,80.57 -39.98,18.45 -78.73,33.21 -116.25,43.06 -36.91,10.46 -72.57,16.59 -107.02,19.05 -34.44,2.46 -66.43,3.7 -96.56,3.7 -116.25,0 -220.81,-20.91 -313.67,-62.11 -92.26,-41.82 -169.75,-102.1 -233.11,-181.45 -63.35,-79.35 -111.33,-176.5 -145.16,-292.76 -33.2,-115.63 -50.42,-249.1 -50.42,-399.18 0,-154.97 17.22,-290.9 52.28,-407.15 35.05,-116.85 84.87,-214.03 149.44,-292.14 65.22,-78.13 143.32,-137.17 234.35,-176.53 91.64,-39.99 193.74,-59.66 306.29,-59.66 103.32,0 199.9,17.84 290.3,54.12 89.81,35.69 168.54,92.26 234.95,168.53 67.05,76.27 119.33,173.45 157.46,291.52 38.74,118.1 57.81,258.34 57.81,420.09 0,26.45 -4.92,51.04 -15.37,73.19 -9.84,22.13 -23.37,41.83 -40.61,59.66 -16.59,17.23 -36.28,30.75 -59.03,40.6 -22.75,9.22 -46.74,14.14 -71.97,14.14l-910.27 0c7.37,59.05 19.69,111.93 36.9,159.29 17.24,46.76 40.61,86.73 68.27,118.71 28.29,31.99 63.36,55.98 104.56,73.2 41.82,16.61 90.43,25.2 147,25.2 39.99,0 73.81,-3.67 102.72,-11.05 28.91,-6.78 53.5,-15.99 73.19,-27.07 19.67,-10.46 36.29,-22.75 50.42,-35.07 13.53,-12.91 24.61,-25.83 33.23,-38.74zm-524.03 -896.74c-27.67,38.13 -48.58,78.73 -61.52,121.77 -13.51,43.07 -23.37,88.57 -30.74,137.79l711.61 0c-8,-52.28 -19.67,-102.1 -35.05,-147.62 -14.77,-46.12 -35.68,-86.11 -62.73,-119.31 -27.07,-33.83 -61.52,-59.68 -103.96,-78.13 -41.82,-18.43 -92.86,-27.67 -153.14,-27.67 -59.65,0 -111.93,9.84 -155.62,29.53 -44.28,19.67 -80.56,47.36 -108.85,83.64z"/>
  <path class="fil0" d="M14.13 3922.42c-9.83,-25.21 -14.13,-48.58 -14.13,-70.11 0,-26.45 5.54,-51.06 16.61,-73.81 11.68,-22.75 25.83,-42.45 43.67,-57.82 17.21,-15.37 37.52,-27.67 60.27,-36.91 22.75,-9.21 44.9,-13.53 66.41,-13.53 42.45,0 78.73,11.7 109.5,35.07 30.13,23.37 52.28,52.28 65.19,85.48l387.49 1030.23 385.62 -1032.07c12.32,-31.98 33.82,-60.89 65.19,-85.48 31.37,-24.61 66.44,-36.91 106.42,-36.91 25.21,0 48.58,4.92 70.73,14.14 22.75,9.85 42.42,23.39 60.88,39.98 17.85,16.61 31.98,36.91 41.82,60.28 10.45,23.37 15.39,48.6 15.39,75.03 -1.24,11.07 -2.45,21.53 -3.69,32.6 -1.25,10.46 -3.08,21.53 -6.76,32.61l-562.18 1495.17c-7.37,23.37 -17.83,41.82 -31.96,57.2 -13.54,14.77 -28.31,27.07 -44.9,36.9 -16,9.86 -32.61,16.62 -49.2,20.91 -17.24,4.32 -32.61,6.16 -47.36,6.16 -43.07,0 -79.97,-11.69 -110.72,-34.44 -30.75,-22.75 -51.66,-51.66 -63.97,-86.11l-281.07 -748.51 -279.25 -746.06z"/>
  <path class="fil0" d="M18680.74 4193.14c21.16,-11.83 40.9,-21.87 59.56,-29.41 18.66,-7.91 36.95,-14.36 55.24,-19.37 18.32,-5.4 36.61,-9.33 54.56,-11.86 18.29,-2.51 37.66,-3.59 58.11,-3.59 57.41,0 112.31,10.78 164.7,32.66 52.02,21.53 100.44,53.45 144.59,95.43 2.87,3.59 5.74,7.17 8.96,10.78 2.87,3.59 6.46,6.46 10.04,9.33 42.7,-43.43 91.14,-78.93 145.67,-106.58 54.18,-27.62 114.83,-41.62 181.19,-41.62 35.16,0 70.32,4.67 105.14,14.37 35.15,9.33 69.23,22.95 101.52,40.16 32.65,17.61 62.8,39.12 90.77,64.95 27.64,25.48 51.68,54.55 72.48,86.47 20.82,32.28 36.97,67.81 48.81,106.92 11.83,38.75 17.92,80.36 17.92,124.51l0 544.64c0,14.7 -2.85,28.7 -8.96,41.98 -6.09,13.63 -14,25.12 -23.67,34.79 -10.07,10.04 -21.53,17.95 -34.82,23.69 -13.62,6.09 -27.62,8.97 -42.32,8.97 -15.45,0 -29.79,-2.88 -42.7,-8.97 -12.92,-5.74 -24.77,-13.65 -34.81,-22.98 -10.41,-9.67 -18.3,-21.16 -23.67,-34.79 -5.75,-13.62 -8.62,-27.99 -8.62,-42.69l0 -543.93c0,-24.41 -5.03,-49.87 -14.71,-76.07 -10.04,-26.54 -24.03,-49.86 -42.69,-71.02 -18.66,-20.82 -41.28,-38.04 -68.53,-51.32 -26.91,-13.28 -57.77,-20.08 -91.85,-20.08 -37.32,0 -69.97,7.17 -97.59,21.51 -27.63,14.36 -50.61,32.65 -68.9,54.55 -18.29,22.24 -31.57,45.91 -40.17,71.03 -8.27,25.12 -12.57,48.79 -12.57,71.4l0 543.93c0,16.15 -3.21,31.2 -9.33,44.85 -6.45,13.63 -14.7,25.12 -24.4,34.79 -10.04,9.33 -21.51,16.5 -34.79,21.9 -13.28,5.38 -26.91,7.89 -40.19,7.89 -15.42,0 -29.78,-2.88 -42.7,-8.97 -12.91,-5.74 -24.75,-13.65 -34.79,-23.69 -10.41,-9.67 -18.31,-21.16 -24.4,-34.45 -6.09,-13.25 -8.97,-27.62 -8.97,-42.32l0 -543.93c0,-27.99 -5.4,-55.25 -16.15,-81.81 -10.76,-26.91 -25.83,-50.23 -44.86,-70.68 -19.37,-20.09 -41.96,-36.22 -68.52,-48.08 -26.54,-11.83 -55.61,-17.92 -86.82,-17.92 -34.81,0 -65.65,6.8 -92.56,20.08 -26.91,13.28 -49.52,30.5 -67.81,52.03 -18.66,21.16 -32.31,44.85 -41.99,70.68 -9.33,25.83 -13.99,51.29 -13.99,75.7l0 543.93c0,14.7 -2.88,29.07 -8.97,42.32 -6.11,13.29 -13.99,24.78 -24.4,34.45 -10.04,10.04 -21.88,17.95 -34.81,23.69 -12.92,6.09 -27.26,8.97 -42.7,8.97 -14.71,0 -28.7,-2.88 -42.33,-8.97 -13.28,-5.74 -24.75,-13.65 -34.79,-23.69 -9.7,-9.67 -17.58,-21.16 -22.98,-34.79 -5.72,-13.28 -8.59,-27.28 -8.59,-41.98l0 -544.64 0 -327.95c0,-13.99 2.87,-27.62 8.25,-41.25 5.74,-13.28 13.62,-24.77 23.32,-34.44 9.67,-10.04 21.51,-17.95 34.79,-24.41 13.28,-6.09 27.28,-9.33 41.99,-9.33 21.16,0 40.53,5.75 58.82,17.24 18.32,11.83 32.31,27.25 41.99,46.99z"/>
  <path class="fil0" d="M17830.05 4128.91c63.86,0 122.69,11.13 176.88,33.74 54.18,22.24 100.1,56.32 138.5,101.89 38.37,45.57 68.15,102.26 89.34,170.42 21.51,67.81 32.29,147.82 32.29,239.68 0,86.1 -9.7,163.24 -29.44,230.69 -19.72,67.81 -48.07,124.87 -85.39,171.15 -37.3,45.94 -82.87,81.81 -137.4,106.56 -54.55,24.77 -115.91,37.32 -184.78,37.32 -67.46,0 -128.08,-11.84 -182.27,-35.16 -53.82,-23.7 -99.73,-58.12 -137.42,-104.06 -37.32,-45.91 -66.36,-102.97 -86.82,-171.15 -20.45,-67.79 -30.49,-146.38 -30.49,-235.35 0,-94.73 11.12,-176.17 33,-244.35 22.24,-68.52 52.74,-125.21 91.14,-170.05 38.74,-44.85 85.02,-77.85 138.49,-99.38 53.82,-21.17 111.94,-31.95 174.37,-31.95zm156.43 286.67c-17.58,-22.24 -39.46,-39.11 -66.02,-50.23 -26.55,-11.12 -56.69,-16.84 -90.41,-16.84 -43.43,0 -79.3,7.88 -107.29,24.03 -27.99,16.14 -50.23,38.75 -66.36,67.45 -16.5,28.7 -27.99,62.78 -34.45,102.97 -6.09,39.82 -9.33,83.97 -9.33,132.04 0,64.57 5.03,117.68 15.07,160.01 10.41,41.98 25.12,75.35 44.13,100.1 19.37,24.77 42.35,42.35 69.6,52.76 26.91,10.04 56.32,15.05 88.63,15.05 31.58,0 60.62,-5.38 87.53,-15.78 27.28,-10.39 50.24,-28.34 69.61,-54.17 19.03,-25.48 34.1,-58.85 44.49,-100.1 10.41,-41.27 15.78,-94.01 15.78,-157.87 0,-56.69 -5.01,-106.92 -14.7,-151.04 -9.68,-44.15 -25.12,-80.39 -46.28,-108.38z"/>
  <path class="fil0" d="M16981.87 4930.81c9.7,-15.42 22.62,-26.91 38.4,-34.79 15.79,-7.54 33.72,-11.49 54.17,-11.49 12.57,0 25.11,2.51 38.03,7.88 13.28,5.4 24.4,12.92 34.44,22.98 9.7,10.39 17.58,21.88 23.7,34.79 5.72,12.92 8.59,26.91 8.59,42.36 0,22.58 -5.72,43.4 -17.58,63.12 -12.2,19.39 -26.91,37.32 -44.83,53.47 -17.95,16.13 -36.24,30.13 -55.27,41.99 -18.66,11.83 -34.79,21.16 -48.07,28.33 -56.32,27.28 -120.19,40.91 -192.66,40.91 -67.1,0 -127.75,-11.84 -181.91,-35.16 -53.82,-23.7 -99.75,-58.12 -137.42,-104.06 -37.68,-45.91 -66.73,-102.97 -87.18,-171.15 -20.46,-67.79 -30.5,-146.38 -30.5,-235.35 0,-94.73 11.13,-176.17 33.37,-244.35 21.88,-68.52 52.37,-125.21 91.11,-170.05 38.77,-44.85 85.05,-77.85 138.5,-99.38 53.82,-21.17 111.96,-31.95 174.03,-31.95 74.98,0 141.71,15.08 199.83,45.57 58.14,30.5 105.84,72.48 143.16,125.59 12.55,19 18.66,39.11 18.66,60.98 0,16.16 -3.24,30.87 -9.33,44.15 -6.46,13.26 -14.36,24.75 -24.4,34.42 -9.68,10.07 -21.17,17.58 -34.08,23.33 -12.92,5.37 -25.49,8.25 -38.4,8.25 -39.82,0 -71.03,-16.14 -93.28,-48.79 -14.7,-21.53 -35.52,-39.11 -62.06,-53.11 -26.57,-13.99 -59.93,-20.79 -100.1,-20.79 -75.72,0 -130.62,26.54 -165.41,79.28 -34.81,52.74 -52.03,135.26 -52.03,247.21 0,64.57 5.38,117.68 15.79,160.01 10.41,41.98 25.12,75.35 44.12,100.1 19.03,24.77 41.99,42.35 68.89,52.76 26.91,10.04 56.7,15.05 88.64,15.05 33.71,0 63.49,-4.66 89.32,-13.99 26.2,-9.68 49.89,-29.05 71.76,-58.12z"/>
  <path class="fil0" d="M16177.47 5111.64c0,30.86 -10.38,56.69 -30.84,77.51 -20.82,20.79 -47.01,31.21 -78.22,31.21 -15.44,0 -29.78,-2.88 -42.7,-8.97 -12.91,-6.11 -24.4,-13.99 -34.07,-23.69 -9.7,-10.04 -17.58,-21.53 -23.33,-34.79 -5.38,-13.65 -8.25,-27.28 -8.25,-41.27l0 -2.16c0,-14.71 2.87,-28.7 8.25,-41.62 5.75,-12.91 13.63,-24.75 23.33,-34.79 9.67,-10.41 21.16,-18.29 34.07,-23.69 12.92,-5.72 27.26,-8.6 42.7,-8.6 14.71,0 28.7,2.51 41.98,7.89 13.26,5.37 24.75,12.91 34.45,22.61 10.04,10.04 17.92,21.53 23.67,34.45 6.09,12.91 8.96,27.62 8.96,43.75l0 1.08 0 1.08z"/>
  <path class="fil1" d="M15623.62 3587.67c-11.78,17.59 -76.9,54.37 -102.44,74.96 4.92,20.22 34.27,50.23 49.04,69.06 36.91,47.04 107.7,161.73 130.83,214.38 42.93,97.74 93.23,243.68 96.51,360.85 -20.32,-8.07 -126.53,-148.61 -159.11,-173.8 -20.97,35.85 -44.59,277.14 -59.03,339.35 -17.46,-13.85 -57.13,-103.98 -71.37,-133.41 -17.61,-36.41 -49.49,-119.13 -72.09,-127.59l-349.3 -50.87c23.58,121.67 166.35,135.12 193.2,153.52 -9.22,13.11 -177.38,158.69 -198.15,164.2 -16.5,-12.93 -82.79,-111.13 -101.85,-138.78l-96.47 -132.39 -46.5 19.06c0.95,28.18 32.5,63.53 47.58,86.01 29.58,44.06 145.77,236.41 156.22,240.41 43.06,1.35 104.12,-28.6 154.07,-29.31 -5.73,71.13 -69.6,162.72 -105.07,203.17 -103.82,118.4 -116.96,61.45 -98.23,201.39 12.42,92.77 6.77,80.6 -96.38,201.62 -21.7,25.46 -46.34,56.89 -68.52,84.11 -16.64,20.42 -50.07,65.28 -67.18,79.72l-209.15 -2.26c-10.06,-56.33 -30.26,-105.13 -42.26,-162.43 -11.3,-53.9 -26.57,-104.04 -40.67,-158.26 -26.1,-100.36 -62.42,-212.88 -82.86,-317.19l-315.82 -30.23c-27.8,-56.96 -56.49,-111.06 -86.17,-170.88 -51.52,-103.85 58.02,-266.38 146.7,-340.3 26.47,-22.06 44.73,-37.76 72.08,-57.14 28.75,-20.37 81.44,-12.38 124.45,-10.34 -12.16,-9.57 -24.29,-6.07 -52.64,-5.77 -17.61,0.18 -35.21,0.11 -52.81,0.11 -1.41,-25.89 4.98,-17.57 -23.62,-17.58l1.09 -20.6 33.46 -110.64c32.51,2.67 79.05,16.8 106.28,11.49 23.1,-76.59 -22.64,-79.35 112.53,-125.05 72.85,-24.62 129.83,-19.9 208.96,-30.18l17.29 -162.62c-33.12,24.98 -81.9,109.52 -116.09,129.04 -20.85,-11.9 -62.9,-51.53 -68.59,-72.34 37.75,-31.11 113.57,-65.98 160.91,-95.52 40.4,-25.22 44.17,-39.27 86.19,-12.46 21.18,13.51 59.87,40.08 85.21,45.8 42.18,-18.11 75.62,-60.13 100.66,-94.99 28.27,-39.35 38.28,-88.8 44.07,-144.85 34.65,-7.64 90.54,21.66 123.07,34.29 30.46,11.83 91,44.26 115.36,46.81l0.27 -140.7c-169.45,-58.55 -267.29,-108.38 -471.32,-113.35 -888.7,-21.63 -1470.52,790.83 -1268.66,1556.1 64.42,244.24 157.64,394.65 311.11,556.15 76.27,80.27 61.14,67.6 150.97,136.4 434.13,332.53 1087.29,340.29 1519.73,-11.57 162.69,-132.37 297.32,-294.15 379.06,-487.94 163.57,-387.85 131.01,-802.64 -82.8,-1158.43 -17.48,-29.1 -40.86,-60.24 -60.73,-85.68 -15.72,-20.12 -54.4,-64.53 -61.02,-82.55z"/>
  <path class="fil2" d="M14197.7 4000.46c40.87,8.34 70.16,38.87 101.29,-0.16 20.35,-25.5 47.11,-49.21 82.34,-70.09 7.09,-4.21 41.52,-20.07 54.24,-22.94 39.56,-8.93 97.66,71.82 115.63,100.38l-44.58 17.13c6.72,18.49 7.09,16.83 24.21,26.81 18.11,-9.43 38.31,-33.48 50.83,-53.94 -14.72,-41.02 -53.46,-65.98 -65.92,-103.13 99.21,-10.98 123.29,123.06 137.52,147.96 41.87,-35.71 84.68,-137.24 129.57,-181.33 24.36,4.07 143.76,55.68 158.23,66.18 -25.28,59.72 -5.97,36.61 -85.1,44.68 -127.22,12.97 -122.62,-5.61 -117.87,76.2l138.88 14.31c-2.14,25.47 -31.53,98.1 -41.99,115.16 -73.88,2.33 -177.8,4.26 -244.7,-11.73 -101.23,-24.19 -100.33,-41.1 -148.83,-113.2l-115.77 -8.45c-43.01,-2.04 -95.7,-10.03 -124.45,10.34 -27.35,19.38 -45.61,35.08 -72.08,57.14 -88.68,73.92 -198.22,236.45 -146.7,340.3 29.68,59.82 58.37,113.92 86.17,170.88l315.82 30.23c20.44,104.31 56.76,216.83 82.86,317.19 14.1,54.22 29.37,104.36 40.67,158.26 12,57.3 32.2,106.1 42.26,162.43l209.15 2.26c17.11,-14.44 50.54,-59.3 67.18,-79.72 22.18,-27.22 46.82,-58.65 68.52,-84.11 103.15,-121.02 108.8,-108.85 96.38,-201.62 -18.73,-139.94 -5.59,-82.99 98.23,-201.39 35.47,-40.45 99.34,-132.04 105.07,-203.17 -49.95,0.71 -111.01,30.66 -154.07,29.31 -10.45,-4 -126.64,-196.35 -156.22,-240.41 -15.08,-22.48 -46.63,-57.83 -47.58,-86.01l46.5 -19.06 96.47 132.39c19.06,27.65 85.35,125.85 101.85,138.78 20.77,-5.51 188.93,-151.09 198.15,-164.2 -26.85,-18.4 -169.62,-31.85 -193.2,-153.52l349.3 50.87c22.6,8.46 54.48,91.18 72.09,127.59 14.24,29.43 53.91,119.56 71.37,133.41 14.44,-62.21 38.06,-303.5 59.03,-339.35 32.58,25.19 138.79,165.73 159.11,173.8 -3.28,-117.17 -53.58,-263.11 -96.51,-360.85 -23.13,-52.65 -93.92,-167.34 -130.83,-214.38 -14.77,-18.83 -44.12,-48.84 -49.04,-69.06l-323.55 257.43c-17.93,15.47 -16.7,27.22 -43.76,34.79 -0.35,-8.21 21.85,-137.81 25.96,-159.5 8.35,-44.19 13.77,-114.48 16.54,-166.75 5.93,-111.81 6.18,-233.62 13.51,-349.31l-2.6 -0.75 -0.27 140.7c-24.36,-2.55 -84.9,-34.98 -115.36,-46.81 -32.53,-12.63 -88.42,-41.93 -123.07,-34.29 -5.79,56.05 -15.8,105.5 -44.07,144.85 -25.04,34.86 -58.48,76.88 -100.66,94.99 -25.34,-5.72 -64.03,-32.29 -85.21,-45.8 -42.02,-26.81 -45.79,-12.76 -86.19,12.46 -47.34,29.54 -123.16,64.41 -160.91,95.52 5.69,20.81 47.74,60.44 68.59,72.34 34.19,-19.52 82.97,-104.06 116.09,-129.04l-17.29 162.62c-79.13,10.28 -136.11,5.56 -208.96,30.18 -135.17,45.7 -89.43,48.46 -112.53,125.05 -27.23,5.31 -73.77,-8.82 -106.28,-11.49l-33.46 110.64z"/>
  <path class="fil3" d="M15551.45 2368.98c-42.4,22.02 -87.51,41.8 -128.38,71.28 -48.15,34.74 -65.09,59.52 -104.73,99.95 -29.33,44.04 -49.22,72.8 -71.56,127.6 -23.41,57.43 -23.94,101.37 -40.88,157.85l3.98 453.63c-7.33,115.69 -7.58,237.5 -13.51,349.31 -2.77,52.27 -8.19,122.56 -16.54,166.75 -4.11,21.69 -26.31,151.29 -25.96,159.5 27.06,-7.57 25.83,-19.32 43.76,-34.79l323.55 -257.43c25.54,-20.59 90.66,-57.37 102.44,-74.96 46.22,-25.92 85.45,-57.42 133.18,-86.98 47.64,-29.51 89.72,-57.69 140.28,-84.9 25.36,-17.31 54.07,-33.09 82.08,-50.23 29.04,-17.77 59.55,-37.98 85.42,-55.27 54.38,-36.36 94.68,-87.92 137.54,-145.08 12.94,-31.41 32.62,-55.61 46.02,-92.66 13.84,-38.3 23.57,-65.05 30.68,-108 14.42,-128.72 4.74,-202.65 -39.42,-306.26 -67.7,-158.82 -209.55,-274.64 -381.56,-310.19 -166.17,-34.36 -232.6,12.33 -306.39,20.88zm149.44 312.59c-244.4,54.51 -191.66,435.65 88.79,389.12 98.58,-16.36 175.69,-111.02 151.24,-237.52 -17.25,-89.27 -121.43,-178.04 -240.03,-151.6z"/>
  <path class="fil4" d="M15411.33 2872.44c0,305.07 362.33,446.43 568.71,241.98 202.24,-200.35 75.22,-567.07 -230.13,-571.02 -117.62,-1.52 -226.42,57.81 -278.9,138.32 -37.55,57.61 -59.68,117.65 -59.68,190.72zm289.56 -190.87c-244.4,54.51 -191.66,435.65 88.79,389.12 98.58,-16.36 175.69,-111.02 151.24,-237.52 -17.25,-89.27 -121.43,-178.04 -240.03,-151.6z"/>
  <path class="fil1" d="M14197.7 4000.46l-1.09 20.6c28.6,0.01 22.21,-8.31 23.62,17.58 17.6,0 35.2,0.07 52.81,-0.11 28.35,-0.3 40.48,-3.8 52.64,5.77l115.77 8.45c48.5,72.1 47.6,89.01 148.83,113.2 66.9,15.99 170.82,14.06 244.7,11.73 10.46,-17.06 39.85,-89.69 41.99,-115.16l-138.88 -14.31c-4.75,-81.81 -9.35,-63.23 117.87,-76.2 79.13,-8.07 59.82,15.04 85.1,-44.68 -14.47,-10.5 -133.87,-62.11 -158.23,-66.18 -44.89,44.09 -87.7,145.62 -129.57,181.33 -14.23,-24.9 -38.31,-158.94 -137.52,-147.96 12.46,37.15 51.2,62.11 65.92,103.13 -12.52,20.46 -32.72,44.51 -50.83,53.94 -17.12,-9.98 -17.49,-8.32 -24.21,-26.81l44.58 -17.13c-17.97,-28.56 -76.07,-109.31 -115.63,-100.38 -12.72,2.87 -47.15,18.73 -54.24,22.94 -35.23,20.88 -61.99,44.59 -82.34,70.09 -31.13,39.03 -60.42,8.5 -101.29,0.16z"/>
  <path class="fil2" d="M13805.76 3714.99c29.05,0.49 60.23,-11.22 89.93,-18.41 43.99,-10.65 53.25,-12.59 73.67,-43.29 55.05,-82.77 161.62,-165.67 250.93,-212.22 32.68,-17.04 131.59,-61.18 175.01,-58.54 -12.12,15.99 -85.98,60.44 -112.63,79.64l-82.2 58.68c-19.09,13.57 -19.06,10.22 -29.02,26.93 32.96,-3.13 196.57,-43.82 228.51,-56.12 30.11,-11.6 167.92,-86.7 181.58,-103.5 -6.46,-20.56 -14.25,-26.08 -26.13,-47.98 -12.69,-23.4 -11.7,-36.38 -47.46,-33.8 -97.4,7 -278.18,77.54 -356.95,118.46 -101.97,52.96 -303.3,205.06 -345.24,290.15z"/>
  <path class="fil2" d="M13771.6 5059.35c-1.58,-62.99 -38.79,-323.83 -60.7,-364.55 -25.95,-48.2 -48.68,-90.44 -74.89,-136.42 -13.89,-24.37 -58.5,-122.54 -75.68,-131.53 -12.73,105.75 29.73,270.88 60.48,357.37 23.86,67.08 79.74,183.94 121.59,247.47 14.94,22.68 13.06,22.73 29.2,27.66z"/>
  <path class="fil2" d="M15022.14 5154.23l53.66 19.12c14.09,-17.23 84.18,-181.58 90.3,-210.07l-106.07 61.78c-14.28,13.24 -34.72,98.16 -37.89,129.17z"/>
  <path class="fil1" d="M14989.05 3874.58c9.89,29.56 66.05,119.78 86.81,150.94l53.4 -3.86c-1.55,-24.23 -66.74,-165.71 -82.71,-180.3 -22.65,5.93 -44.56,20.42 -57.5,33.22z"/>
  <path class="fil2" d="M14283.15 3751.83l115.66 27.75 2.38 -120.79c-18.04,4.39 -46.82,28.72 -62.63,40.93 -27.38,21.15 -47.03,29.57 -55.41,52.11z"/>
  <path class="fil5" d="M11017.55 855.62l26.59 -34.19 26.61 -28.52 36.12 -312.54 129.19 49.38 83.63 266.01 478.8 45.59c0,0 151.99,-68.41 163.39,-178.59 3.21,-31 4.64,-97 4.96,-175.82 0.02,-7.47 -238.41,-19.88 -238.41,-27.55 0,-5.36 238.5,-6.05 238.5,-11.49 0,-62.76 -0.5,-130.96 -1.17,-194.73 -0.02,-3.56 -173.04,-5.75 -173.06,-9.29 0,-2.91 172.88,-7.33 172.85,-10.18 -0.41,-41.89 -1.05,-81.37 -1.58,-115.54 -122.21,-1.33 -475.01,-17.65 -0.3,-21.14 -0.14,-11.4 -1.98,-54.74 -1.79,-97.02l133 39.55 79.81 224.21c53.52,6.02 111.8,-21.23 160.56,18.04 -22.8,66.8 -89.32,46.23 -133.97,69.35l28.03 163.89c46.4,3.63 156.93,-0.8 173.39,45.11 -18.04,50.97 -83.6,43.07 -125.4,64.6l64.59 250.82c0,0 493.99,22.77 490.2,121.59 0,0 45.62,140.61 -596.59,60.8l-292.63 209c38.01,21.85 103.57,10.94 114.03,65.56 -101.34,65.24 -157.07,14.57 -235.61,21.85l-190.02 144.41c36.88,21.85 97.52,17.07 110.67,65.54 7.37,38.28 -125.98,27.43 -255.05,18.06l-224.22 163.38 -144.4 -7.58 19.67 -30.24 -182.07 -17.49 205.12 -17.99 6.69 -10.3 41.8 -34.19 53.19 -38.01 109.53 -96.12 -222.84 -5.7 244.41 -13.58 81.72 -78.39 53.17 -48.85 -270.35 -11.12 292.02 -8.67 206.36 -189.76c0,0 60.78,-125.4 -45.61,-155.8 -106.4,-30.41 -490.21,-79.81 -490.21,-79.81l-254.59 209 -152.01 7.6 203.28 -263.14z"/>
  <path class="fil0" d="M7442.28 3575.68c30.11,-69.72 61.66,-137.88 95.05,-206.08l-0.14 0.32 -102.67 -51.57c-34.63,69.26 -66.92,140.39 -97.62,211.51l105.38 45.82zm257.67 -504.36c39.23,-65.4 80,-127.56 121.47,-191.37l-94.95 -64.71c-43.38,64.39 -84.88,130.04 -124.82,196.61l98.3 59.47zm322.45 -465.77c47.09,-59.22 95.69,-116.92 145.74,-173.66l-85.67 -76.57c-51.45,58.12 -101.38,117.59 -149.69,178.35l89.62 71.88zm381.19 -419.13c54.51,-52.39 110.19,-103.43 167.39,-152.88l-74.92 -87.14c-58.71,50.88 -115.91,103.18 -171.93,157.02l79.46 83zm433.17 -365.14c60.76,-44.84 122.94,-87.99 186.06,-129.43l-62.78 -96.23c-64.82,42.55 -128.8,86.93 -191.21,132.96l67.93 92.7zm477.56 -304.65c66.11,-36.4 133.61,-70.82 201.6,-103.57l-49.5 -103.68c-69.9,33.6 -139.23,69.01 -207.16,106.42l55.06 100.83zm513.73 -238.36c70.46,-27.19 141.7,-52.42 213.53,-75.74l-35.02 -109.43c-73.81,23.9 -147.23,49.93 -219.59,77.85l41.08 107.32zm540.83 -167.64c73.83,-17.4 147.48,-32.84 222.08,-46.56l-20.46 -113.06c-76.45,14.09 -152.01,29.88 -227.68,47.71l26.06 111.91zm2769.16 273.2c68.55,31.67 136.48,64.97 203.21,100.29l54.05 -101.39c-68.32,-36.42 -138.57,-70.61 -208.86,-103.08l-48.4 104.18zm497.51 270.77c63.75,40.47 126.69,82.55 188.14,126.44l66.96 -93.39c-63.22,-45.04 -127.74,-88.27 -193.28,-129.88l-61.82 96.83zm457.25 334.4c57.91,48.47 114.6,98.63 169.8,150.18l78.64 -83.79c-56.76,-52.92 -114.9,-104.44 -174.4,-154.26l-74.04 87.87zm409.16 391.88c51.01,55.9 100.37,112.87 148.51,171.29l88.89 -72.8c-49.43,-60 -100.12,-118.53 -152.52,-175.94l-84.88 77.45zm353.84 442.42c42.21,63.31 84.19,124.6 124.55,189.38l97.71 -60.44c-41.46,-66.57 -84.59,-129.51 -127.95,-194.57l-94.31 65.63z"/>
 </g>
</svg>
