<svg xmlns="http://www.w3.org/2000/svg"
 viewBox="0 0 2600 1003"
 preserveAspectRatio="xMidYMid meet">

<g transform="translate(0.000000,1003.000000) scale(0.100000,-0.100000)"
fill="#555555" stroke="none">
<circle fill="#4CAF50" cx="19500" cy="6080" r="980"/>
<path d="M14880 10012 c-19 -21 -17 -138 5 -241 8 -41 18 -115 22 -165 3 -50
9 -98 13 -106 10 -19 35 -243 32 -290 -2 -41 -18 -160 -28 -207 -5 -27 -11
-33 -33 -34 -14 -1 -30 0 -36 1 -13 4 -208 16 -458 29 -108 6 -202 13 -207 16
-11 7 -132 190 -210 319 -32 51 -67 97 -85 108 -37 22 -108 24 -125 3 -15 -18
-6 -93 34 -279 14 -65 26 -133 26 -150 0 -32 -25 -66 -47 -66 -19 0 -46 -40
-46 -69 0 -19 11 -43 31 -66 48 -54 51 -44 -86 -306 -40 -75 -72 -141 -72
-147 0 -28 44 -52 95 -52 44 0 56 5 97 38 25 21 53 45 61 53 8 8 50 46 93 85
43 38 101 90 129 117 33 30 61 47 77 47 14 0 92 -16 174 -34 82 -19 178 -38
214 -42 36 -4 72 -10 81 -15 9 -4 57 -15 108 -23 51 -8 99 -20 107 -27 22 -18
19 -62 -15 -244 -5 -22 -29 -89 -54 -150 -25 -60 -53 -128 -62 -150 -21 -53
-22 -55 -104 -238 -39 -87 -71 -169 -71 -182 0 -34 19 -44 105 -56 98 -13 120
-5 171 67 22 30 50 70 64 89 14 19 38 52 53 74 l28 41 76 -1 c41 -1 80 4 85 9
6 6 14 31 19 56 8 46 3 72 -23 108 -9 13 -9 20 2 33 12 15 26 16 81 11 88 -8
108 6 116 85 5 52 3 58 -22 81 l-27 26 66 93 c36 52 72 101 80 109 7 8 19 26
25 38 10 19 18 22 37 18 82 -21 501 -67 604 -67 177 0 347 42 410 101 43 40
43 100 -1 153 -42 52 -149 112 -276 157 -114 40 -200 56 -478 90 -93 12 -180
24 -193 26 -24 5 -41 36 -87 159 -14 39 -33 85 -42 103 -15 31 -15 33 3 47 10
8 26 17 35 20 20 7 29 35 29 91 0 54 -21 72 -94 80 -48 6 -60 11 -69 31 -9 21
-7 27 21 53 29 26 32 34 32 88 0 65 -9 75 -81 87 -47 7 -85 37 -94 72 -3 15
-14 45 -24 68 -10 22 -28 69 -41 105 -13 36 -29 72 -37 81 -14 17 -79 37 -123
38 -14 0 -26 5 -28 11 -6 16 -45 11 -62 -8z"/>
<path d="M13550 8739 c-97 -17 -185 -41 -191 -51 -7 -11 14 -114 25 -125 3 -4
50 3 104 14 148 32 186 43 194 56 8 13 3 45 -14 90 -11 30 -29 32 -118 16z"/>
<path d="M16755 8533 c-23 -54 -29 -89 -16 -97 14 -9 229 -87 256 -93 17 -4
25 5 44 46 36 81 42 76 -165 146 -39 14 -78 27 -87 31 -12 4 -20 -5 -32 -33z"/>
<path d="M12730 8503 c-36 -14 -90 -34 -120 -44 -78 -28 -82 -34 -58 -96 18
-47 24 -53 49 -53 16 0 37 4 47 9 26 14 156 61 168 61 5 0 19 7 31 15 l22 15
-21 60 c-23 69 -23 69 -118 33z"/>
<path d="M17543 8183 c-19 -33 -24 -50 -16 -61 5 -9 50 -38 99 -64 131 -71
153 -82 157 -77 33 47 58 94 55 107 -3 15 -169 107 -237 130 -30 11 -32 9 -58
-35z"/>
<path d="M11961 8159 c-29 -16 -58 -32 -65 -37 -6 -5 -39 -24 -73 -42 -35 -18
-63 -37 -63 -44 0 -18 58 -106 70 -106 6 0 46 19 88 43 42 24 95 53 117 64 23
13 41 30 43 42 3 20 -44 112 -56 110 -4 -1 -31 -15 -61 -30z"/>
<path d="M18277 7742 c-15 -15 -27 -35 -27 -44 0 -14 209 -178 227 -178 5 0
24 15 42 34 42 44 37 70 -22 109 -23 16 -67 46 -97 67 -66 47 -88 49 -123 12z"/>
<path d="M11195 7659 c-109 -83 -135 -107 -135 -124 0 -19 58 -85 76 -85 7 0
51 30 96 66 46 37 93 73 106 81 12 9 22 23 22 32 0 20 -57 91 -73 91 -7 0 -48
-28 -92 -61z"/>
<path d="M18930 7194 l-42 -46 59 -62 c33 -33 77 -82 98 -108 20 -27 42 -48
49 -48 6 1 33 21 59 45 l48 44 -48 53 c-114 125 -157 168 -168 168 -7 0 -32
-21 -55 -46z"/>
<path d="M10591 7122 c-41 -43 -142 -159 -153 -176 -9 -14 60 -86 83 -86 16 0
199 186 207 210 4 12 -73 90 -89 90 -6 0 -28 -17 -48 -38z"/>
<path fill="#1565C0" d="M20475 7053 c-107 -23 -158 -38 -205 -61 -186 -90 -316 -254 -362
-454 -19 -86 -20 -120 -19 -435 2 -189 0 -352 -4 -363 -8 -26 -27 -25 -84 3
-129 65 -191 88 -331 119 -133 31 -513 33 -665 4 -328 -61 -620 -212 -846
-436 -170 -169 -250 -277 -335 -455 -106 -222 -156 -448 -155 -694 2 -326 97
-644 265 -885 73 -105 260 -303 362 -382 68 -53 243 -164 259 -164 2 0 32 -13
67 -29 101 -47 243 -90 372 -113 166 -29 442 -29 598 1 125 24 301 82 408 136
237 119 484 344 643 587 158 240 255 595 244 889 -7 184 -49 416 -92 501 -8
17 -15 36 -15 42 0 13 -48 106 -62 121 -6 6 -7 -1 -2 -20 4 -16 10 -32 14 -35
3 -3 14 -32 24 -65 11 -33 22 -64 26 -70 4 -5 10 -35 14 -65 4 -30 11 -59 16
-65 11 -14 24 -135 13 -135 -4 0 -48 45 -97 101 -48 55 -93 98 -99 96 -17 -5
-28 -56 -42 -200 -4 -43 -12 -80 -16 -83 -5 -3 -9 -23 -9 -44 0 -93 -26 -92
-69 3 -80 173 -114 237 -130 241 -45 12 -441 59 -448 53 -9 -9 22 -65 51 -92
35 -33 68 -52 129 -71 31 -10 57 -21 57 -25 0 -9 -108 -109 -158 -146 -20 -15
-39 -31 -42 -34 -12 -14 -47 -27 -56 -21 -5 4 -34 41 -64 82 -29 41 -83 116
-119 165 -36 50 -66 92 -68 94 -5 8 -53 -30 -53 -42 0 -6 9 -25 20 -42 27 -41
38 -58 89 -140 25 -38 67 -105 95 -148 l51 -77 45 6 c25 3 68 12 95 19 47 12
50 11 53 -8 10 -56 -74 -192 -185 -302 l-72 -71 1 -125 c1 -111 -1 -128 -18
-146 -57 -61 -94 -103 -94 -108 0 -3 -41 -55 -92 -116 l-92 -110 -134 3 -135
3 -18 55 c-10 30 -30 105 -45 165 -14 61 -32 130 -40 155 -7 25 -25 90 -40
145 -14 55 -32 116 -39 135 -7 19 -18 65 -25 103 -7 37 -17 67 -24 68 -6 0
-98 8 -205 17 l-194 17 -57 114 c-84 165 -87 179 -65 249 37 119 66 164 171
269 56 56 114 107 130 113 19 8 75 9 167 4 122 -6 139 -9 148 -26 17 -31 80
-98 93 -98 6 0 24 -7 40 -15 34 -18 170 -35 283 -35 l83 0 19 43 c46 101 37
127 -45 127 -71 0 -104 13 -104 43 0 37 19 47 86 47 35 0 66 5 69 10 3 6 25
10 47 10 37 0 67 18 68 42 0 10 -95 58 -113 58 -8 0 -20 6 -26 14 -6 8 -25 16
-42 18 -26 4 -34 -1 -64 -43 -19 -25 -35 -52 -35 -58 0 -6 -4 -11 -10 -11 -5
0 -10 -6 -10 -13 0 -14 -60 -97 -70 -97 -4 0 -17 25 -30 56 -27 66 -81 124
-115 124 -36 0 -37 -13 -5 -51 16 -19 29 -40 30 -46 0 -7 5 -13 10 -13 16 0
12 -19 -11 -51 -22 -31 -50 -37 -68 -15 -10 12 -6 15 19 21 16 4 30 10 30 14
0 16 -103 121 -125 127 -34 8 -103 -27 -173 -90 -35 -31 -68 -56 -74 -56 -28
0 -78 25 -77 40 0 8 8 40 18 70 l17 55 44 -4 c96 -9 93 -10 102 38 4 24 17 54
28 66 32 34 153 69 298 84 40 4 77 12 81 17 10 11 26 184 17 184 -10 0 -59
-53 -86 -93 -37 -55 -66 -59 -106 -14 -19 20 -31 42 -28 50 5 14 246 157 264
157 6 0 44 -18 84 -40 l73 -40 36 29 c48 37 107 108 123 148 8 17 17 57 20 87
5 42 11 56 23 56 22 -1 131 -41 219 -80 l72 -34 0 -147 c0 -94 -4 -150 -11
-154 -6 -4 -9 -28 -6 -59 2 -28 1 -58 -4 -66 -4 -9 -10 -40 -13 -70 -8 -80
-18 -134 -27 -145 -4 -6 -4 -17 1 -24 6 -11 23 -1 72 40 35 30 77 63 92 74 30
22 38 28 181 144 55 44 107 81 116 81 8 0 29 -16 45 -35 41 -50 51 -43 14 9
-16 25 -30 51 -30 58 0 11 118 106 206 166 11 7 55 37 98 67 44 30 86 55 93
55 7 0 13 3 13 8 0 4 26 20 58 37 95 49 235 135 266 163 41 39 108 128 145
194 48 85 71 170 78 285 7 125 -10 209 -69 333 -34 71 -56 100 -132 175 -116
115 -203 163 -354 194 -51 11 -177 13 -217 4z m213 -432 c51 -26 103 -75 126
-119 28 -55 36 -149 16 -209 -43 -132 -182 -211 -319 -182 -132 29 -215 131
-216 264 0 122 65 219 178 262 48 19 164 10 215 -16z"/>
<path d="M19497 6558 c-57 -40 -59 -60 -12 -122 19 -26 35 -48 35 -50 0 -2 18
-31 40 -64 39 -57 42 -60 68 -51 15 5 40 21 56 34 28 22 29 26 17 51 -13 29
-106 172 -138 212 l-18 22 -48 -32z"/>
<path d="M10068 6475 c-40 -53 -138 -217 -138 -231 0 -17 79 -76 97 -72 7 2
49 57 92 123 l80 120 -29 25 c-16 14 -41 32 -57 42 -27 15 -29 15 -45 -7z"/>
<path d="M14422 6183 c-78 -43 -120 -104 -129 -189 -10 -92 44 -187 124 -220
49 -21 156 -18 201 5 100 52 146 165 111 272 -37 111 -209 184 -307 132z"/>
<path d="M16836 6185 c-47 -16 -100 -66 -129 -120 -21 -39 -22 -51 -25 -480
-2 -242 -7 -444 -12 -449 -5 -5 -46 7 -97 27 -48 20 -123 43 -165 51 -88 18
-337 21 -408 5 -25 -5 -65 -14 -90 -19 -44 -8 -117 -36 -175 -67 -160 -84
-276 -216 -369 -416 -87 -187 -125 -359 -133 -607 -12 -356 61 -654 220 -898
24 -37 77 -100 118 -140 141 -140 367 -222 609 -222 137 0 210 10 310 42 76
24 203 83 243 112 l27 20 33 -31 c154 -145 381 -188 485 -90 40 37 75 117 75
172 1 88 -65 178 -150 205 -21 7 -44 17 -50 23 -10 7 -13 288 -14 1341 0 732
-4 1352 -8 1377 -21 126 -170 209 -295 164z m-451 -1435 c125 -50 233 -198
271 -370 14 -65 34 -401 29 -479 -8 -109 -36 -242 -70 -321 -53 -126 -112
-193 -214 -243 -65 -32 -67 -32 -216 -32 -149 0 -151 0 -216 32 -36 18 -78 42
-92 54 -47 36 -105 134 -136 226 -88 267 -67 760 41 951 32 57 118 141 170
168 72 37 112 43 248 40 104 -2 135 -7 185 -26z"/>
<path d="M9656 5723 c-15 -15 -106 -245 -106 -267 0 -3 26 -14 57 -26 67 -25
69 -24 104 69 11 30 31 79 45 108 13 30 24 60 24 69 0 8 -19 24 -42 34 -46 21
-70 25 -82 13z"/>
<path d="M20360 5236 c0 -2 8 -10 18 -17 15 -13 16 -12 3 4 -13 16 -21 21 -21
13z"/>
<path d="M210 5220 c-94 -18 -150 -68 -176 -158 l-17 -57 43 -125 c41 -121 55
-160 124 -340 33 -86 44 -113 154 -405 115 -304 308 -825 349 -940 49 -139
100 -242 139 -281 36 -36 50 -43 98 -49 68 -9 138 7 182 40 53 41 117 189 304
700 28 77 57 156 65 175 96 237 320 834 399 1061 70 200 47 304 -78 363 -95
45 -174 29 -251 -49 -43 -43 -51 -64 -206 -475 -34 -91 -82 -217 -106 -280
-24 -63 -59 -155 -78 -205 -149 -397 -163 -430 -181 -430 -13 0 -23 12 -31 37
-7 21 -22 58 -33 82 -11 25 -20 49 -20 53 0 8 -55 146 -106 264 -13 31 -24 61
-24 67 0 6 -11 37 -24 69 -13 32 -35 85 -47 118 -13 33 -26 65 -30 70 -4 6
-14 33 -22 60 -25 84 -157 426 -189 490 -38 75 -60 100 -112 124 -53 25 -83
30 -126 21z"/>
<path d="M3050 5206 c-143 -33 -185 -51 -295 -122 -104 -68 -233 -217 -295
-342 -158 -318 -184 -863 -60 -1241 17 -52 54 -140 83 -195 43 -84 68 -117
147 -197 180 -182 370 -259 639 -259 255 0 457 76 631 237 181 167 274 379
316 713 31 250 7 551 -62 770 -95 304 -291 519 -559 614 -11 4 -67 16 -124 27
-141 26 -295 24 -421 -5z m444 -460 c138 -68 218 -191 257 -395 19 -104 21
-138 16 -355 -5 -271 -20 -357 -80 -470 -72 -135 -180 -208 -337 -226 -273
-31 -452 81 -530 331 -33 108 -43 243 -37 493 5 211 7 238 31 311 28 88 80
182 129 233 42 43 144 93 218 106 34 7 104 8 169 5 91 -5 119 -11 164 -33z"/>
<path d="M5430 5205 c-123 -33 -146 -43 -234 -94 -270 -158 -427 -457 -465
-881 -24 -275 10 -585 88 -792 106 -283 295 -463 582 -555 78 -25 96 -27 269
-27 172 0 190 1 265 26 165 53 268 113 372 217 93 93 128 213 89 304 -17 39
-71 96 -106 109 -108 43 -174 25 -275 -79 -87 -89 -151 -121 -265 -132 -179
-18 -306 17 -404 113 -72 70 -111 157 -147 323 -19 88 -41 83 385 84 204 0
484 4 621 8 228 6 254 9 291 29 54 28 88 69 109 133 14 42 16 71 11 163 -14
226 -52 388 -132 560 -85 184 -242 357 -384 423 -193 91 -482 120 -670 68z
m445 -458 c83 -39 121 -71 164 -137 58 -89 126 -320 99 -336 -16 -10 -932 -4
-942 6 -9 9 -5 34 23 150 41 170 162 303 308 340 21 5 94 8 163 7 112 -3 131
-6 185 -30z"/>
<path d="M7230 5200 c-61 -34 -97 -78 -113 -142 -14 -55 -10 -1953 4 -2017 26
-116 101 -181 209 -181 97 1 168 49 205 140 17 42 19 97 26 713 7 587 10 674
24 720 44 134 141 247 264 306 75 36 77 36 206 36 100 0 142 -4 182 -18 56
-20 148 -77 203 -127 19 -17 55 -45 80 -63 40 -28 53 -31 115 -32 62 0 75 3
112 30 86 61 117 179 71 274 -26 56 -154 186 -234 239 -23 15 -145 74 -199 97
-76 31 -212 55 -312 55 -98 0 -285 -30 -325 -51 -12 -6 -33 -15 -47 -19 -14
-4 -52 -20 -84 -34 l-58 -26 -41 45 c-81 89 -188 109 -288 55z"/>
<path d="M9900 5206 c-144 -40 -223 -78 -315 -153 -174 -142 -289 -364 -356
-688 -19 -92 -22 -142 -23 -310 0 -174 3 -218 26 -340 54 -286 152 -492 304
-635 101 -95 181 -142 329 -191 99 -33 101 -33 290 -34 169 0 199 3 270 23 92
27 229 89 278 126 19 14 39 26 45 26 6 0 49 -29 96 -64 105 -79 175 -107 281
-113 65 -4 89 -1 126 15 87 38 132 105 132 197 0 116 -75 203 -195 225 -29 6
-56 16 -61 23 -5 7 -6 383 -4 857 5 907 5 907 -46 973 -29 38 -95 73 -154 83
-59 9 -143 -27 -191 -82 -22 -24 -44 -44 -50 -44 -7 0 -35 11 -64 24 -185 85
-241 97 -463 102 -155 3 -178 2 -255 -20z m462 -458 c149 -69 231 -192 273
-409 22 -117 22 -480 0 -597 -42 -221 -124 -346 -266 -409 -61 -27 -71 -28
-214 -28 l-150 0 -78 38 c-59 29 -87 50 -118 89 -90 115 -122 220 -144 473
-20 233 -7 395 42 550 31 95 59 143 122 208 87 91 170 118 351 114 111 -3 132
-6 182 -29z"/>
<path d="M12038 5216 c-68 -35 -88 -52 -108 -88 -51 -91 -50 -42 -50 -1553 0
-937 4 -1432 11 -1475 21 -135 102 -210 223 -210 90 1 166 51 202 135 16 35
18 91 22 483 l4 442 25 0 c13 0 41 -9 63 -20 21 -11 78 -32 127 -47 82 -25
101 -27 273 -27 193 -1 231 5 361 53 241 91 453 334 533 612 53 183 61 247 61
519 0 290 -11 375 -70 552 -95 288 -297 507 -545 591 -101 34 -189 47 -322 47
-183 0 -316 -28 -446 -94 -65 -33 -72 -33 -108 5 -50 53 -122 89 -179 89 -27
0 -62 -6 -77 -14z m947 -450 c215 -57 322 -227 355 -568 15 -152 1 -392 -30
-512 -43 -171 -136 -297 -260 -352 -63 -28 -71 -29 -215 -29 -147 1 -151 1
-215 31 -207 99 -291 337 -277 784 7 212 27 313 84 421 57 111 168 206 267
230 53 12 238 10 291 -5z"/>
<path d="M14398 5200 c-29 -18 -58 -48 -75 -77 l-28 -48 0 -1030 0 -1030 25
-45 c14 -24 45 -58 68 -75 40 -27 51 -30 125 -30 72 0 87 4 123 27 54 35 80
78 94 158 7 45 10 359 8 1045 -3 957 -3 981 -23 1015 -31 55 -47 71 -97 96
-71 36 -157 33 -220 -6z"/>
<path d="M20405 5170 c9 -31 11 -33 24 -29 5 2 0 15 -11 29 l-21 25 8 -25z"/>
<path d="M20436 5112 c6 -4 16 -16 22 -27 8 -15 11 -16 12 -4 0 17 -19 39 -34
39 -8 0 -7 -3 0 -8z"/>
<path d="M20480 5044 c0 -13 18 -39 24 -34 2 3 -2 14 -10 24 -8 11 -14 16 -14
10z"/>
<path d="M21775 4630 c-128 -18 -263 -87 -311 -159 -60 -90 -72 -109 -94 -161
-41 -97 -51 -159 -56 -335 -5 -145 -2 -184 14 -262 35 -161 116 -300 211 -362
215 -138 459 -129 668 26 65 47 103 105 103 154 0 50 -36 99 -86 117 -38 14
-45 14 -80 -3 -22 -10 -57 -36 -79 -59 -61 -63 -97 -76 -207 -76 -103 0 -129
9 -192 68 -74 68 -99 160 -100 367 0 262 50 377 187 425 121 43 225 17 324
-80 56 -55 64 -60 106 -60 31 0 53 7 73 22 45 35 53 50 54 99 0 72 -58 142
-174 208 -112 64 -236 88 -361 71z"/>
<path d="M23075 4630 c-295 -50 -459 -295 -459 -685 0 -320 107 -537 315 -639
208 -102 477 -53 634 115 144 154 202 491 132 774 -17 72 -51 157 -80 205 -35
58 -116 137 -166 163 -109 57 -268 86 -376 67z m218 -270 c121 -57 167 -173
167 -421 0 -233 -45 -345 -165 -408 -54 -29 -187 -30 -248 -2 -57 27 -111 85
-139 151 -21 51 -23 69 -23 265 0 191 2 215 21 261 39 95 92 145 184 175 42
14 153 2 203 -21z"/>
<path d="M24107 4630 c-32 -10 -75 -54 -83 -85 -2 -11 -3 -292 -2 -623 l3
-604 30 -24 c57 -46 137 -41 186 12 l24 26 5 411 c5 398 6 414 27 460 52 112
186 196 292 183 97 -12 199 -76 237 -149 42 -82 44 -108 44 -508 0 -377 1
-387 21 -413 42 -53 104 -69 163 -41 62 30 61 21 66 470 l5 410 28 57 c36 73
72 109 145 145 47 23 69 28 127 27 87 -1 145 -26 206 -89 83 -85 83 -85 89
-551 5 -394 6 -413 25 -434 42 -47 113 -62 166 -34 57 29 59 45 59 472 0 234
-4 412 -11 448 -14 78 -67 188 -121 249 -56 63 -173 139 -257 166 -100 32
-232 30 -331 -6 -79 -29 -164 -79 -217 -128 l-31 -29 -31 21 c-17 13 -31 26
-31 29 0 15 -139 93 -201 113 -125 41 -315 26 -421 -33 l-37 -21 -41 36 c-22
21 -46 37 -53 37 -6 0 -21 2 -32 5 -11 2 -33 0 -48 -5z"/>
<path d="M20824 3495 c-60 -31 -83 -115 -47 -176 26 -43 88 -70 136 -59 49 11
71 31 87 79 34 103 -80 205 -176 156z"/>
</g>
<!-- Pin vermelho sobreposto (coordenadas viewBox) -->
<circle fill="#E53935" cx="2079" cy="330" r="72"/>
<polygon fill="#E53935" points="2007,390 2151,390 2079,505"/>
<circle fill="white" cx="2079" cy="320" r="28"/>
</svg>
